<svg width="39" height="104" viewBox="0 0 39 104" fill="none" xmlns="http://www.w3.org/2000/svg">
<path fill-rule="evenodd" clip-rule="evenodd" d="M19.9777 1C20.6443 1 22.4777 1.2 24.4777 2C26.4777 2.8 29.9777 4.66667 31.4777 5.5C33.6443 6.66667 37.9777 9.3 37.9777 10.5C37.9777 11.7 37.6443 12.3333 37.4777 12.5L37.9777 13.5L37.7277 14.75L37.9777 14.5V15L37.4777 91.5C37.4777 92 37.3777 93.1 36.9777 93.5C36.9038 93.5738 36.8082 93.6804 36.6875 93.8148C35.9911 94.5907 34.4608 96.2953 31.4777 98C28.6777 99.6 26.9777 100.667 26.4777 101L22.4777 102.5L19.9777 103C18.9777 103 16.5777 102.8 14.9777 102C13.3777 101.2 8.97766 98.6667 6.97766 97.5C5.81099 96.6667 3.27766 94.7 2.47766 93.5L1.97766 92L1.47766 45L0.977661 14.5V13.5L1.26672 12.5469L1.05579 10.9844C1.18079 10.5078 1.56047 9.46719 2.07922 9.11719C2.28224 8.98021 2.7127 8.66097 3.2373 8.27192C4.38827 7.41834 5.99238 6.22871 6.64172 5.89062C7.39797 5.49687 11.587 3.35156 13.587 2.32812L18.1105 1.07031L19.9777 1ZM3.34863 16.7258L5.47766 18.5L11.5628 21.0745L3.34863 16.7258ZM27.3369 20.9333L31.4777 19.5L34.7027 17.35L27.3369 20.9333Z" fill="#02362D"/>
<path d="M24.4777 2L24.422 2.13927L24.4777 2ZM19.9777 1V0.849894L19.972 0.850106L19.9777 1ZM31.4777 5.5L31.4048 5.63113L31.4065 5.63207L31.4777 5.5ZM37.4777 12.5L37.3716 12.3939L37.2951 12.4704L37.3435 12.5671L37.4777 12.5ZM37.9777 13.5L38.1247 13.5294L38.1348 13.479L38.1118 13.4329L37.9777 13.5ZM37.7277 14.75L37.5806 14.7206L37.4834 15.2064L37.8337 14.8561L37.7277 14.75ZM37.9777 14.5H38.1277V14.1379L37.8716 14.3939L37.9777 14.5ZM37.9777 15L38.1277 15.001V15H37.9777ZM37.4777 91.5L37.3277 91.499V91.5H37.4777ZM36.9777 93.5L37.0837 93.6061L37.0837 93.6061L36.9777 93.5ZM36.6875 93.8148L36.7991 93.915L36.7992 93.915L36.6875 93.8148ZM31.4777 98L31.5521 98.1302L31.4777 98ZM26.4777 101L26.5303 101.14L26.5465 101.134L26.5609 101.125L26.4777 101ZM22.4777 102.5L22.5071 102.647L22.519 102.645L22.5303 102.64L22.4777 102.5ZM19.9777 103V103.15H19.9925L20.0071 103.147L19.9777 103ZM6.97766 97.5L6.8901 97.6226L6.90208 97.6296L6.97766 97.5ZM2.47766 93.5L2.33536 93.5474L2.34171 93.5665L2.35285 93.5832L2.47766 93.5ZM1.97766 92L1.82767 92.0016L1.82792 92.0251L1.83536 92.0474L1.97766 92ZM1.47766 45L1.62766 44.9984L1.62764 44.9975L1.47766 45ZM0.977661 14.5H0.827641L0.827681 14.5025L0.977661 14.5ZM0.977661 13.5L0.834117 13.4565L0.827661 13.4778V13.5H0.977661ZM1.26672 12.5469L1.41027 12.5904L1.41974 12.5592L1.41538 12.5268L1.26672 12.5469ZM1.05579 10.9844L0.910694 10.9463L0.903164 10.975L0.907135 11.0044L1.05579 10.9844ZM2.07922 9.11719L1.99533 8.99284L2.07922 9.11719ZM3.2373 8.27192L3.32666 8.3924H3.32666L3.2373 8.27192ZM6.64172 5.89062L6.57245 5.75758L6.64172 5.89062ZM13.587 2.32812L13.5469 2.18361L13.5322 2.18768L13.5187 2.19459L13.587 2.32812ZM18.1105 1.07031L18.1048 0.920419L18.0872 0.921081L18.0703 0.925796L18.1105 1.07031ZM5.47766 18.5L5.38163 18.6152L5.39873 18.6295L5.41922 18.6381L5.47766 18.5ZM3.34863 16.7258L3.41881 16.5932L3.2526 16.841L3.34863 16.7258ZM11.5628 21.0745L11.5043 21.2126L11.633 20.9419L11.5628 21.0745ZM31.4777 19.5L31.5267 19.6417L31.5449 19.6355L31.5609 19.6248L31.4777 19.5ZM27.3369 20.9333L27.2713 20.7984L27.386 21.0751L27.3369 20.9333ZM34.7027 17.35L34.7859 17.4748L34.637 17.2151L34.7027 17.35ZM24.5334 1.86073C22.5151 1.05342 20.6628 0.85 19.9777 0.85V1.15C20.6259 1.15 22.4402 1.34658 24.422 2.13927L24.5334 1.86073ZM31.5505 5.36888C30.0511 4.53589 26.5434 2.66473 24.5334 1.86073L24.422 2.13927C26.4119 2.93527 29.9042 4.79744 31.4048 5.63112L31.5505 5.36888ZM38.1277 10.5C38.1277 10.3077 38.0422 10.1059 37.9131 9.90683C37.7822 9.70517 37.5962 9.49076 37.372 9.26974C36.9234 8.82746 36.3063 8.34386 35.6266 7.86488C34.266 6.90618 32.6354 5.95305 31.5488 5.36793L31.4065 5.63207C32.4866 6.21362 34.106 7.16049 35.4538 8.11012C36.1282 8.5853 36.7299 9.05796 37.1614 9.48338C37.3773 9.69622 37.5468 9.89353 37.6614 10.0701C37.7777 10.2493 37.8277 10.3923 37.8277 10.5H38.1277ZM37.5837 12.6061C37.6908 12.499 37.8253 12.2736 37.9332 11.9328C38.0424 11.5875 38.1277 11.1138 38.1277 10.5H37.8277C37.8277 11.0862 37.7462 11.5291 37.6472 11.8422C37.5467 12.1598 37.4312 12.3344 37.3716 12.3939L37.5837 12.6061ZM38.1118 13.4329L37.6118 12.4329L37.3435 12.5671L37.8435 13.5671L38.1118 13.4329ZM37.8747 14.7794L38.1247 13.5294L37.8306 13.4706L37.5806 14.7206L37.8747 14.7794ZM37.8716 14.3939L37.6216 14.6439L37.8337 14.8561L38.0837 14.6061L37.8716 14.3939ZM38.1277 15V14.5H37.8277V15H38.1277ZM37.6277 91.501L38.1277 15.001L37.8277 14.999L37.3277 91.499L37.6277 91.501ZM37.0837 93.6061C37.2042 93.4856 37.2948 93.3207 37.3642 93.1439C37.4342 92.9655 37.4863 92.7654 37.5249 92.566C37.6021 92.1674 37.6277 91.7577 37.6277 91.5H37.3277C37.3277 91.7423 37.3033 92.1326 37.2304 92.509C37.194 92.6971 37.1462 92.8782 37.0849 93.0343C37.0231 93.1918 36.9511 93.3144 36.8716 93.3939L37.0837 93.6061ZM36.7992 93.915C36.921 93.7792 37.0135 93.6763 37.0837 93.6061L36.8716 93.3939C36.7942 93.4713 36.6954 93.5815 36.5759 93.7146L36.7992 93.915ZM31.5521 98.1302C34.5552 96.4142 36.0979 94.6962 36.7991 93.915L36.5759 93.7146C35.8842 94.4851 34.3665 96.1765 31.4032 97.8698L31.5521 98.1302ZM26.5609 101.125C27.0568 100.794 28.7535 99.7294 31.5521 98.1302L31.4032 97.8698C28.6018 99.4706 26.8985 100.539 26.3945 100.875L26.5609 101.125ZM22.5303 102.64L26.5303 101.14L26.425 100.86L22.425 102.36L22.5303 102.64ZM20.0071 103.147L22.5071 102.647L22.4482 102.353L19.9482 102.853L20.0071 103.147ZM14.9106 102.134C15.7301 102.544 16.7471 102.797 17.6786 102.948C18.6117 103.099 19.4697 103.15 19.9777 103.15V102.85C19.4856 102.85 18.6436 102.801 17.7267 102.652C16.8083 102.503 15.8252 102.256 15.0447 101.866L14.9106 102.134ZM6.90208 97.6296C8.90031 98.7952 13.3052 101.331 14.9106 102.134L15.0447 101.866C13.4501 101.069 9.05501 98.5381 7.05324 97.3704L6.90208 97.6296ZM2.35285 93.5832C2.76593 94.2028 3.61463 95.0066 4.49312 95.7519C5.37597 96.5008 6.30434 97.2034 6.89048 97.6221L7.06485 97.3779C6.48431 96.9633 5.56268 96.2658 4.6872 95.5231C3.80736 94.7767 2.98939 93.9972 2.60247 93.4168L2.35285 93.5832ZM1.83536 92.0474L2.33536 93.5474L2.61996 93.4526L2.11996 91.9526L1.83536 92.0474ZM1.32767 45.0016L1.82767 92.0016L2.12765 91.9984L1.62765 44.9984L1.32767 45.0016ZM0.827681 14.5025L1.32768 45.0025L1.62764 44.9975L1.12764 14.4975L0.827681 14.5025ZM0.827661 13.5V14.5H1.12766V13.5H0.827661ZM1.12318 12.5033L0.834117 13.4565L1.1212 13.5435L1.41027 12.5904L1.12318 12.5033ZM0.907135 11.0044L1.11807 12.5669L1.41538 12.5268L1.20444 10.9643L0.907135 11.0044ZM1.99533 8.99284C1.7009 9.19149 1.46203 9.57075 1.28475 9.93813C1.10456 10.3116 0.975267 10.7001 0.910694 10.9463L1.20088 11.0224C1.26131 10.7921 1.38435 10.422 1.55494 10.0685C1.72845 9.70894 1.9388 9.39288 2.16312 9.24153L1.99533 8.99284ZM3.14795 8.15144C2.62144 8.54191 2.19476 8.85828 1.99533 8.99284L2.16312 9.24153C2.36972 9.10214 2.80397 8.78004 3.32666 8.3924L3.14795 8.15144ZM6.57245 5.75758C6.23681 5.93233 5.6648 6.32076 5.04054 6.76583C4.41313 7.21316 3.7232 7.72482 3.14795 8.15144L3.32666 8.3924C3.90237 7.96544 4.58999 7.4555 5.2147 7.0101C5.84258 6.56244 6.39729 6.18701 6.711 6.02367L6.57245 5.75758ZM13.5187 2.19459C11.5191 3.21783 7.32931 5.36351 6.57245 5.75758L6.711 6.02367C7.46663 5.63024 11.655 3.48529 13.6554 2.46166L13.5187 2.19459ZM18.0703 0.925796L13.5469 2.18361L13.6272 2.47264L18.1507 1.21483L18.0703 0.925796ZM19.972 0.850106L18.1048 0.920419L18.1161 1.22021L19.9833 1.14989L19.972 0.850106ZM5.57369 18.3848L3.44466 16.6106L3.2526 16.841L5.38163 18.6152L5.57369 18.3848ZM11.6212 20.9363L5.53611 18.3619L5.41922 18.6381L11.5043 21.2126L11.6212 20.9363ZM3.27845 16.8584L11.4926 21.207L11.633 20.9419L3.41881 16.5932L3.27845 16.8584ZM31.4286 19.3583L27.2879 20.7916L27.386 21.0751L31.5267 19.6417L31.4286 19.3583ZM34.6195 17.2252L31.3945 19.3752L31.5609 19.6248L34.7859 17.4748L34.6195 17.2252ZM27.4025 21.0682L34.7683 17.4849L34.637 17.2151L27.2713 20.7984L27.4025 21.0682Z" fill="#06B597"/>
<path d="M37.9088 13.5291V13.4413V13.5291ZM16.1314 21.8526L16.5344 22.0438L17.4437 22.3951L18.4254 22.6948L19.5104 22.7981L20.5954 22.6741L21.577 22.3951L22.4709 22.0283L22.91 21.8164M1.17911 11.8861L1.35478 12.2168L1.17911 11.8861ZM37.8933 11.5348L37.9088 11.3436L37.8933 11.5348ZM19.4742 23.0254V23.3044V23.0254ZM30.0039 19.4914L29.8799 19.4398L29.8282 19.4243L29.7765 19.4398M8.96526 19.4914L9.08926 19.4398L9.14092 19.4243L9.17709 19.4398M8.96526 19.4914L8.00426 18.9334L7.1466 18.4271L6.28893 17.9001L5.43127 17.3576L4.6976 16.8306L4.17061 16.4276L3.70044 16.0608L3.29744 15.694L2.96678 15.3426L2.35711 14.4695L2.28478 14.2783M36.7567 14.206L36.6533 14.485L36.3537 14.9758L35.9352 15.446L35.496 15.8851L34.9535 16.3398L34.3077 16.8099L33.3622 17.4764L32.2255 18.1739L31.1922 18.8043L30.0039 19.4863M15.2221 102.008L14.0131 101.517L12.2616 100.623L8.93942 98.6652M30.5205 98.629L33.6153 96.5985L35.0672 95.498L36.3072 94.3252L36.8858 93.5709L37.2682 92.7494L37.3715 92.0519M37.79 12.8213L37.9812 13.3638V14.0975L37.7383 14.795L37.2837 15.477L36.5293 16.2468L35.6562 16.9804L35.341 17.2078L34.0442 18.1016L30.8099 20.0236M2.08845 92.0932L2.17628 92.7752L2.50694 93.4934L2.99778 94.1754L3.10111 94.3149L3.59194 94.8212L4.7131 95.8029L5.9531 96.7122L8.87226 98.6342M8.11793 20.0339L5.19877 18.2824L3.83477 17.3731L2.59478 16.3915L1.80945 15.6061L1.23078 14.733L1.00345 14.0355L1.05512 13.3018L1.21011 12.8988M1.24628 12.9505L1.14295 13.214L1.10678 13.9321L1.31861 14.6503L1.87661 15.4873L2.68261 16.2933L4.3256 17.5694L6.2166 18.7784L8.19543 19.9151M37.9088 13.4413V13.3018L37.7332 12.8316M30.753 19.9151L33.2692 18.4478L35.5787 16.8926L36.4518 16.159L37.2062 15.3891L37.6453 14.7226L37.9088 14.0251V13.5343M30.4947 19.7601L31.7347 19.0419L32.8197 18.4116L33.9925 17.6573L34.9742 16.9753L35.6562 16.4483L36.2658 15.9213L36.7722 15.3943L37.1028 14.9396L37.3457 14.5211L37.5007 14.051L37.5523 13.5963L37.48 13.3535M8.47442 19.7549L9.73509 20.4731L10.8717 21.0828L12.1996 21.7493L13.4241 22.3279L14.3489 22.7103L15.2944 23.0616L16.2554 23.3613L17.0407 23.5524L17.8261 23.6919L18.6631 23.7798L19.5001 23.8159L21.1637 23.6764L21.9335 23.5369L22.7395 23.3251L24.1914 22.8549L25.5554 22.2969L27.1829 21.5271L28.8259 20.6901L30.4895 19.7653M1.50978 13.3896L1.47361 13.6531L1.68545 14.578L1.92828 14.9965L2.27961 15.4356L3.10111 16.2416L4.04661 17.0114L5.37443 17.9208L6.86243 18.8301L8.46926 19.7549M8.19026 19.9099L10.7788 21.3463L13.5791 22.6586L14.8759 23.1649L16.2554 23.6041L17.4644 23.8676L18.7251 24.0071L20.0219 24.0226L21.298 23.8831L22.8377 23.5524L24.274 23.0823L26.5835 22.1368L28.7329 21.0518L30.7634 19.9151M30.8357 20.0391L28.7897 21.1758L26.6404 22.2608L24.3309 23.2218L22.8945 23.6764L21.3394 24.0278L20.0426 24.1518H18.7147L17.4386 23.9968L16.2296 23.7333L14.8294 23.3148L13.5171 22.7878L13.1141 22.6121L11.5227 21.8784L8.12826 20.0443M8.88259 98.6445L10.4894 99.6417L12.1686 100.623L13.9511 101.517L15.8576 102.287L17.1182 102.654L18.4461 102.897L19.7067 102.969L20.9467 102.897L22.135 102.669L23.2562 102.354L23.4835 102.282L24.3205 101.967L25.9119 101.269L27.4154 100.484L30.5309 98.6497M8.41759 4.95765L10.0968 4.04832L10.5876 3.80549M30.8409 18.1843L33.6412 16.5413L34.969 15.6681L36.1935 14.7433L37.0667 13.9218L37.7332 13.0125L38.0122 12.315V11.912M30.7375 5.00415L32.4683 5.96515L34.1475 6.96231L35.6872 8.02664L36.9995 9.16331L37.542 9.80914L37.9088 10.4911L38.0483 11.2093L37.945 11.943L37.542 12.7128L36.9323 13.4465L35.6562 14.5676L34.1527 15.601L32.5252 16.5981L30.846 17.5591M1.00345 11.9378L0.987949 12.1651L1.19978 12.8626L1.63895 13.5601L2.21761 14.206L2.91511 14.8363L4.5426 16.0246L6.2941 17.1251L8.11276 18.1739M8.11276 17.5436L6.39743 16.5465L4.76994 15.5338L3.23027 14.4488L1.93345 13.276L1.42711 12.6301L1.07578 11.9481L0.951782 11.23L1.10678 10.4963L1.52528 9.74197L2.19178 9.00831L3.50411 7.92331L3.55577 7.88715M8.17476 18.2256L6.3561 17.1613L4.6046 16.0763V16.0608M33.636 16.531L33.5843 16.5465L30.7685 18.2256M30.6652 4.95249L28.9705 4.04316L27.2397 3.14933L25.4055 2.32783L23.4474 1.63033L22.1712 1.29967L20.8227 1.07233L19.5466 1L18.2859 1.07233L17.0976 1.28417L15.9454 1.56316L13.8994 2.26066L11.9929 3.09766L10.1743 4.00699L8.42276 4.95249M1.35478 12.2168L1.50978 12.532L2.01611 13.1778L3.27677 14.3506L4.80094 15.415L6.4646 16.4276L8.17993 17.4248M8.42276 4.95249L6.7436 5.87732L5.1006 6.83832L3.59711 7.85098L2.28478 8.95148L1.63895 9.66964L1.22045 10.424L1.08095 11.1421L1.18428 11.8603V11.8758M37.914 11.3333L37.9502 11.1215L37.8107 10.4033L37.4438 9.73681L36.9168 9.09097L35.6045 7.95431L34.0648 6.90548L32.3857 5.90832L30.6704 4.94732M30.7582 17.4196L32.4528 16.4586L34.0597 15.477L35.5632 14.4281L36.8238 13.307L37.4335 12.5888L37.8365 11.8345L37.8882 11.5193M8.80509 18.5821L8.17476 18.2308L8.80509 18.5821ZM30.7737 18.2308L28.8827 19.2641L26.9245 20.2613L26.2064 20.5764M8.10243 17.5488V18.1791V17.5488ZM8.10243 18.1791L10.0451 19.2641L12.0756 20.2974L14.2456 21.2223L15.7336 21.7493L17.3611 22.1316L18.6734 22.2866L20.0012 22.3021L21.3135 22.1626L22.5535 21.8991L24.1294 21.4289L25.5967 20.8503L26.9969 20.2199L28.955 19.2228L30.846 18.1739M30.846 17.5436V18.1739V17.5436ZM30.846 17.5436V17.5281L30.8305 17.5126V17.4971L30.815 17.4816V17.4661L30.7995 17.4506L30.784 17.4351H30.7685M8.19026 17.4351L9.88492 18.3806L11.6364 19.3054L13.4912 20.1424L15.5011 20.8761L16.7979 21.2274L18.1774 21.4548L19.4742 21.5271L20.7711 21.4548L22.011 21.2636L23.1632 20.9639L25.2609 20.2303L27.2035 19.3571L29.0222 18.4116L30.7737 17.4299M8.12309 17.5539V17.5023L8.13859 17.4868L8.15409 17.4713V17.4558L8.16959 17.4403H8.18509M30.8512 17.5643L29.0842 18.5459L27.2655 19.4914L25.3229 20.3646L23.2045 21.0983L22.0317 21.3979L20.7711 21.6098L19.4587 21.6821L18.1464 21.6098L16.7462 21.3824L15.4339 21.0311L13.4241 20.2974L11.5537 19.4398L9.80225 18.5149L8.10759 17.5694M30.2157 19.6309L28.2575 20.6953L26.227 21.7286L24.0415 22.6534L22.6414 23.1236L21.1379 23.4543L19.5311 23.5938L17.9242 23.4904L16.1417 23.0719L14.4987 22.4933L12.9591 21.8268L11.5227 21.1293L10.1226 20.3749L8.75859 19.6206M8.75859 19.6206L6.8676 18.5201L5.0851 17.3834L3.45761 16.159L2.65161 15.3891L2.07295 14.5521L1.89728 13.834M37.1235 13.7978L36.984 14.4798L36.2865 15.477L35.2738 16.3863L34.1217 17.2439L32.861 18.0499L31.5642 18.8353L30.2157 19.6206M37.4903 13.3586L37.542 13.5705L37.3663 14.4953L36.6688 15.508L35.6717 16.4535L34.4833 17.3266L33.2072 18.1636L31.8587 18.9696L30.4947 19.7549M8.47442 19.7549L6.55243 18.6338L4.73377 17.4816L3.09078 16.2416L2.26928 15.4356L1.69061 14.578L1.47878 13.6686L1.53045 13.4258M30.4947 19.7549L28.4849 20.8554L26.4234 21.9043L24.1862 22.8498L22.7499 23.3199L21.1947 23.6713L19.5517 23.8108L17.8881 23.6868L16.0539 23.2838L14.3747 22.7051L12.7989 22.0231L11.3109 21.2894L9.87459 20.5351L8.47442 19.7498M3.12178 14.981V15.2445V14.981ZM35.9352 14.8776V15.1566V14.8776ZM27.2087 20.1218V20.1579V20.1218ZM12.3752 20.5248V20.4369V20.5248ZM26.6145 20.5248V20.4008V20.5248ZM12.9901 20.9278V20.7159V20.9278ZM26.0204 20.9278V20.6643V20.9278ZM35.9352 14.8776L36.0385 15.0326L35.9352 14.8776ZM13.6152 21.3618V20.9949V21.3618ZM25.3694 21.3618V20.9433V21.3618ZM14.2972 21.8526V21.2223V21.8526ZM24.6874 21.8681V21.2223V21.8681ZM15.0516 22.3589V21.6253V22.3589ZM23.9175 22.3434V21.6253V22.3434ZM15.8886 22.6586V22.0283V22.6586ZM23.0754 22.6379V22.0283V22.6379ZM16.8496 22.9531V22.4468V22.9531ZM22.1144 22.9376V22.4468V22.9376ZM17.9346 23.1804V22.8136V23.1804ZM21.0294 23.1649V22.8136V23.1649ZM19.1591 23.3044V23.0048V23.3044ZM19.8049 23.2838V23.0048V23.2838ZM26.0152 21.4134L25.4365 20.9071L26.0152 21.4134ZM25.8034 20.7676L26.413 21.2378L25.8034 20.7676ZM26.7644 21.0466L26.1547 20.6074L26.7644 21.0466ZM26.4854 20.4524L27.1312 20.8554L26.4854 20.4524ZM27.4825 20.6798L26.8367 20.2974L27.4825 20.6798ZM27.1519 20.1424L27.8339 20.5093L27.1519 20.1424ZM28.1852 20.3181L27.4877 19.9874L28.1852 20.3181ZM27.8184 19.8118L28.5365 20.1269L27.8184 19.8118ZM28.9034 19.9358L28.1697 19.6361L28.9034 19.9358ZM28.521 19.4604L29.2754 19.7239L28.521 19.4604ZM29.6577 19.5121L28.8879 19.2693L29.6577 19.5121ZM29.2547 19.0574L30.04 19.2848L29.2547 19.0574ZM30.443 19.0574L29.637 18.8456L30.443 19.0574ZM30.04 18.6338L30.8615 18.8094L30.04 18.6338ZM31.3007 18.5666L30.4792 18.3909L31.3007 18.5666ZM30.9184 18.1481L31.7553 18.2876L30.9184 18.1481ZM30.8305 18.1326L30.9184 18.1481L30.8305 18.1326ZM32.2307 18.0086L31.373 17.8846L32.2307 18.0086ZM31.8432 17.6056L32.7163 17.7089L31.8432 17.6056ZM33.2227 17.3783L32.365 17.2904L33.2227 17.3783ZM32.9075 16.9753L33.7445 17.0269L32.9075 16.9753ZM34.2715 16.6446L33.5017 16.6085L34.2715 16.6446ZM34.0958 16.2261L34.7933 16.2416L34.0958 16.2261ZM35.3203 15.8025H34.7417H35.3203ZM35.372 15.3633L35.7905 15.3478L35.372 15.3633ZM3.22511 15.3478L3.62811 15.3633L3.22511 15.3478ZM4.23777 15.8025H3.67977H4.23777ZM4.1861 16.2416L4.8681 16.2261L4.1861 16.2416ZM5.47777 16.6291L4.70794 16.6446L5.47777 16.6291ZM5.25043 17.0269L6.03577 16.9753L5.25043 17.0269ZM6.57826 17.3059L5.75677 17.3783L6.57826 17.3059ZM6.28376 17.7089L7.10526 17.6056L6.28376 17.7089ZM7.59609 17.8846L6.7746 18.0086L7.59609 17.8846ZM8.05076 18.1636L8.13859 18.1481L8.05076 18.1636ZM7.22926 18.3031L8.05076 18.1636L7.22926 18.3031ZM8.48992 18.4064L7.68393 18.5614L8.48992 18.4064ZM8.12309 18.8249L8.92909 18.6338L8.12309 18.8249ZM9.31142 18.8611L8.54159 19.0729L9.31142 18.8611ZM8.94459 19.3003L9.69892 19.0729L8.94459 19.3003ZM10.0658 19.2848L9.33209 19.5276L10.0658 19.2848ZM9.71442 19.7394L10.4326 19.4759L9.71442 19.7394ZM10.7839 19.6516L10.0864 19.9306L10.7839 19.6516ZM10.4378 20.1424L11.1352 19.8273L10.4378 20.1424ZM11.4659 20.0029L10.7839 20.3336L11.4659 20.0029ZM11.1352 20.5093L11.8017 20.1579L11.1352 20.5093ZM12.1324 20.3129L11.4866 20.6953L12.1324 20.3129ZM11.8379 20.8709L12.4682 20.4679L11.8379 20.8709ZM12.8196 20.6229L12.1892 21.0621L12.8196 20.6229ZM12.5561 21.2378L13.1657 20.7831L12.5561 21.2378ZM13.5171 20.9381L12.9384 21.4289L13.5171 20.9381ZM13.3414 21.6201L13.8839 21.0931L13.3414 21.6201ZM14.3024 21.2171L13.7599 21.7958L14.3024 21.2171ZM14.1784 22.0076L14.6692 21.4289L14.1784 22.0076ZM15.0516 21.6201L14.6331 22.1781L15.0516 21.6201ZM15.0516 21.6201L15.2789 21.7234L15.4546 21.8268M15.1032 22.3693L15.4546 21.8268L15.1032 22.3693ZM15.8937 22.0179L15.5941 22.5604L15.8937 22.0179ZM15.8937 22.0179L16.1572 22.1419L16.3691 22.2298M16.1262 22.7206L16.3691 22.2298L16.1262 22.7206ZM16.8599 22.4416L16.6842 22.8963L16.8599 22.4416ZM16.8599 22.4416L17.1596 22.5449L17.3869 22.6328M17.2629 23.0358L17.3869 22.6328L17.2629 23.0358ZM17.9449 22.8084L17.8726 23.1598L17.9449 22.8084ZM17.9449 22.8084L18.2756 22.8808L18.5391 22.9324M18.5029 23.2476L18.5391 22.9324L18.5029 23.2476ZM19.1694 23.0048L19.1539 23.3044L19.1694 23.0048ZM19.1694 23.0048L19.3451 23.0203H19.4846M19.8152 23.0048L19.6241 23.0203H19.4846M19.8152 23.2838V23.0048V23.2838ZM20.4249 22.9324L20.4611 23.2476L20.4249 22.9324ZM21.0397 22.8084L20.7091 22.8808L20.4301 22.9324M21.112 23.1443L21.0397 22.8136L21.112 23.1443ZM21.5977 22.6379L21.701 23.0409L21.5977 22.6379ZM22.1195 22.4468L21.8199 22.5501L21.5925 22.6379M22.29 22.8808L22.1144 22.4416L22.29 22.8808ZM22.6052 22.2298L22.8325 22.7206L22.6052 22.2298ZM23.0754 22.0231L22.8119 22.1471L22.6 22.2349M23.3544 22.5501L23.0754 22.0231L23.3544 22.5501ZM23.5145 21.8319L23.8659 22.3589L23.5145 21.8319ZM23.9175 21.6253L23.6902 21.7286L23.5145 21.8319M24.336 22.1833L23.9175 21.6253L24.336 22.1833ZM24.3205 21.4341L24.7907 21.9921L24.3205 21.4341ZM25.2092 21.8009L24.6822 21.2223L25.2092 21.8009ZM25.0335 21.0466L25.6277 21.6046L25.0335 21.0466ZM22.8997 21.8319L23.127 21.7286L23.2304 21.6769M16.0952 21.8319L16.5499 22.0438L17.4437 22.4106L18.4047 22.6741L19.4691 22.7981L20.5334 22.6741L21.8974 22.2556L22.6517 21.9404M29.9987 19.4914L29.017 20.0339L28.1077 20.5248L27.1622 21.0156L26.1805 21.5064L25.2557 21.9249L24.5375 22.2401L23.8555 22.5036L23.189 22.7464L22.5587 22.9376L20.9674 23.3044L20.2131 23.3923L19.4794 23.4284L18.6734 23.3923L17.8674 23.2889L16.9736 23.1133L16.1159 22.8704L15.3461 22.6276L14.5401 22.3124L13.6669 21.9456L12.5147 21.4031L11.2386 20.7573L10.1536 20.1631L8.94459 19.4966M30.195 19.6206L32.1015 18.4994L33.9202 17.3628L35.5477 16.1383L36.3537 15.353L36.9323 14.516L37.1442 13.679M1.91278 13.8443L2.05228 14.5108L2.74978 15.4925L3.74694 16.4018L4.8836 17.2594L6.1236 18.0654L7.42043 18.8508L8.74826 19.6206M8.74826 19.6206L10.6909 20.6849L12.7369 21.7183L14.9224 22.6638L16.3226 23.1339L17.8467 23.4646L19.4381 23.5886L21.0449 23.4646L22.8274 23.0616L24.4704 22.4829L25.9945 21.8164L27.4464 21.0983L28.8465 20.3646L30.2105 19.6103M37.3973 92.0519L38.0277 13.7513L37.3973 92.0519ZM0.987949 13.7926L2.07295 92.0932L0.987949 13.7926ZM38.0483 11.9016V11.2713V11.9016ZM0.951782 11.3075L0.967282 11.9378L0.951782 11.3075ZM37.5368 13.8598L37.5523 13.6686L37.5368 13.8598ZM9.17192 19.4398L7.40493 18.4064L5.84977 17.4454L4.53744 16.5206L3.73144 15.8541L3.10111 15.2238L2.73428 14.6658M36.2968 14.6141L36.2245 14.7691L35.806 15.3116L35.1395 15.9781L34.1785 16.7118L32.9695 17.5333L31.5022 18.4426L29.7714 19.4398M29.7714 19.4398L27.9527 20.4369L26.289 21.2946L24.7494 22.0128L23.6644 22.4519L22.6 22.8033L21.4995 23.1029L20.3784 23.2786L19.2572 23.3303L18.1567 23.2269L16.9839 22.9996L15.6716 22.5966L14.2197 22.0386L12.6439 21.3204L10.9648 20.4473L9.16159 19.4501" fill="#02362D"/>
<path d="M37.9088 13.5291V13.4413M16.1314 21.8526L16.5344 22.0438L17.4437 22.3951L18.4254 22.6948L19.5104 22.7981L20.5954 22.6741L21.577 22.3951L22.4709 22.0283L22.91 21.8164M1.17911 11.8861L1.35478 12.2168M37.8933 11.5348L37.9088 11.3436M19.4742 23.0254V23.3044M30.0039 19.4914L29.8799 19.4398L29.8282 19.4243L29.7765 19.4398M8.96526 19.4914L9.08926 19.4398L9.14092 19.4243L9.17709 19.4398M8.96526 19.4914L8.00426 18.9334L7.1466 18.4271L6.28893 17.9001L5.43127 17.3576L4.6976 16.8306L4.17061 16.4276L3.70044 16.0608L3.29744 15.694L2.96678 15.3426L2.35711 14.4695L2.28478 14.2783M36.7567 14.206L36.6533 14.485L36.3537 14.9758L35.9352 15.446L35.496 15.8851L34.9535 16.3398L34.3077 16.8099L33.3622 17.4764L32.2255 18.1739L31.1922 18.8043L30.0039 19.4863M15.2221 102.008L14.0131 101.517L12.2616 100.623L8.93942 98.6652M30.5205 98.629L33.6153 96.5985L35.0672 95.498L36.3072 94.3252L36.8858 93.5709L37.2682 92.7494L37.3715 92.0519M37.79 12.8213L37.9812 13.3638V14.0975L37.7383 14.795L37.2837 15.477L36.5293 16.2468L35.6562 16.9804L35.341 17.2078L34.0442 18.1016L30.8099 20.0236M2.08845 92.0932L2.17628 92.7752L2.50694 93.4934L2.99778 94.1754L3.10111 94.3149L3.59194 94.8212L4.7131 95.8029L5.9531 96.7122L8.87226 98.6342M8.11793 20.0339L5.19877 18.2824L3.83477 17.3731L2.59478 16.3915L1.80945 15.6061L1.23078 14.733L1.00345 14.0355L1.05512 13.3018L1.21011 12.8988M1.24628 12.9505L1.14295 13.214L1.10678 13.9321L1.31861 14.6503L1.87661 15.4873L2.68261 16.2933L4.3256 17.5694L6.2166 18.7784L8.19543 19.9151M37.9088 13.4413V13.3018L37.7332 12.8316M30.753 19.9151L33.2692 18.4478L35.5787 16.8926L36.4518 16.159L37.2062 15.3891L37.6453 14.7226L37.9088 14.0251V13.5343M30.4947 19.7601L31.7347 19.0419L32.8197 18.4116L33.9925 17.6573L34.9742 16.9753L35.6562 16.4483L36.2658 15.9213L36.7722 15.3943L37.1028 14.9396L37.3457 14.5211L37.5007 14.051L37.5523 13.5963L37.48 13.3535M8.47442 19.7549L9.73509 20.4731L10.8718 21.0828L12.1996 21.7493L13.4241 22.3279L14.3489 22.7103L15.2944 23.0616L16.2554 23.3613L17.0407 23.5524L17.8261 23.6919L18.6631 23.7798L19.5001 23.8159L21.1637 23.6764L21.9335 23.5369L22.7395 23.3251L24.1914 22.8549L25.5554 22.2969L27.1829 21.5271L28.8259 20.6901L30.4895 19.7653M1.50978 13.3896L1.47361 13.6531L1.68545 14.578L1.92828 14.9965L2.27961 15.4356L3.10111 16.2416L4.04661 17.0114L5.37443 17.9208L6.86243 18.8301L8.46926 19.7549M8.19026 19.9099L10.7788 21.3463L13.5791 22.6586L14.8759 23.1649L16.2554 23.6041L17.4644 23.8676L18.7251 24.0071L20.0219 24.0226L21.298 23.8831L22.8377 23.5524L24.274 23.0823L26.5835 22.1368L28.7329 21.0518L30.7634 19.9151M30.8357 20.0391L28.7897 21.1758L26.6404 22.2608L24.3309 23.2218L22.8945 23.6764L21.3394 24.0278L20.0426 24.1518H18.7147L17.4386 23.9968L16.2296 23.7333L14.8294 23.3148L13.5171 22.7878L13.1141 22.6121L11.5227 21.8784L8.12826 20.0443M8.88259 98.6445L10.4894 99.6417L12.1686 100.623L13.9511 101.517L15.8576 102.287L17.1182 102.654L18.4461 102.897L19.7067 102.969L20.9467 102.897L22.135 102.669L23.2562 102.354L23.4835 102.282L24.3205 101.967L25.9119 101.269L27.4154 100.484L30.5309 98.6497M8.41759 4.95765L10.0968 4.04832L10.5876 3.80549M30.8409 18.1843L33.6412 16.5413L34.969 15.6681L36.1935 14.7433L37.0667 13.9218L37.7332 13.0125L38.0122 12.315V11.912M30.7375 5.00415L32.4683 5.96515L34.1475 6.96231L35.6872 8.02664L36.9995 9.16331L37.542 9.80914L37.9088 10.4911L38.0483 11.2093L37.945 11.943L37.542 12.7128L36.9323 13.4465L35.6562 14.5676L34.1527 15.601L32.5252 16.5981L30.846 17.5591M1.00345 11.9378L0.987949 12.1651L1.19978 12.8626L1.63895 13.5601L2.21761 14.206L2.91511 14.8363L4.5426 16.0246L6.2941 17.1251L8.11276 18.1739M8.11276 17.5436L6.39743 16.5465L4.76994 15.5338L3.23027 14.4488L1.93345 13.276L1.42711 12.6301L1.07578 11.9481L0.951782 11.23L1.10678 10.4963L1.52528 9.74197L2.19178 9.00831L3.50411 7.92331L3.55577 7.88714M8.17476 18.2256L6.3561 17.1613L4.6046 16.0763V16.0608M33.636 16.531L33.5843 16.5465L30.7685 18.2256M30.6652 4.95249L28.9705 4.04316L27.2397 3.14933L25.4055 2.32783L23.4474 1.63033L22.1712 1.29967L20.8227 1.07233L19.5466 1L18.2859 1.07233L17.0976 1.28417L15.9454 1.56316L13.8994 2.26066L11.9929 3.09766L10.1743 4.00699L8.42276 4.95249M1.35478 12.2168L1.50978 12.532L2.01611 13.1778L3.27677 14.3506L4.80094 15.415L6.4646 16.4276L8.17993 17.4248M8.42276 4.95249L6.7436 5.87732L5.1006 6.83832L3.59711 7.85098L2.28478 8.95148L1.63895 9.66964L1.22045 10.424L1.08095 11.1421L1.18428 11.8603V11.8758M37.914 11.3333L37.9502 11.1215L37.8107 10.4033L37.4438 9.73681L36.9168 9.09097L35.6045 7.95431L34.0648 6.90548L32.3857 5.90832L30.6704 4.94732M30.7582 17.4196L32.4528 16.4586L34.0597 15.477L35.5632 14.4281L36.8238 13.307L37.4335 12.5888L37.8365 11.8345L37.8882 11.5193M8.80509 18.5821L8.17476 18.2308M30.7737 18.2308L28.8827 19.2641L26.9245 20.2613L26.2064 20.5764M8.10243 17.5488V18.1791M8.10243 18.1791L10.0451 19.2641L12.0756 20.2974L14.2456 21.2223L15.7336 21.7493L17.3611 22.1316L18.6734 22.2866L20.0012 22.3021L21.3135 22.1626L22.5535 21.8991L24.1294 21.4289L25.5967 20.8503L26.9969 20.2199L28.955 19.2228L30.846 18.1739M30.846 17.5436V18.1739M30.846 17.5436V17.5281L30.8305 17.5126V17.4971L30.815 17.4816V17.4661L30.7995 17.4506L30.784 17.4351H30.7685M8.19026 17.4351L9.88492 18.3806L11.6364 19.3054L13.4912 20.1424L15.5011 20.8761L16.7979 21.2274L18.1774 21.4548L19.4742 21.5271L20.7711 21.4548L22.011 21.2636L23.1632 20.9639L25.2609 20.2303L27.2035 19.3571L29.0222 18.4116L30.7737 17.4299M8.12309 17.5539V17.5023L8.13859 17.4868L8.15409 17.4713V17.4558L8.16959 17.4403H8.18509M30.8512 17.5643L29.0842 18.5459L27.2655 19.4914L25.3229 20.3646L23.2045 21.0983L22.0317 21.3979L20.7711 21.6098L19.4587 21.6821L18.1464 21.6098L16.7462 21.3824L15.4339 21.0311L13.4241 20.2974L11.5537 19.4398L9.80225 18.5149L8.10759 17.5694M30.2157 19.6309L28.2575 20.6953L26.227 21.7286L24.0415 22.6534L22.6414 23.1236L21.1379 23.4543L19.5311 23.5938L17.9242 23.4904L16.1417 23.0719L14.4987 22.4933L12.9591 21.8268L11.5227 21.1293L10.1226 20.3749L8.75859 19.6206M8.75859 19.6206L6.8676 18.5201L5.0851 17.3834L3.45761 16.159L2.65161 15.3891L2.07295 14.5521L1.89728 13.834M37.1235 13.7978L36.984 14.4798L36.2865 15.477L35.2738 16.3863L34.1217 17.2439L32.861 18.0499L31.5642 18.8353L30.2157 19.6206M37.4903 13.3586L37.542 13.5705L37.3663 14.4953L36.6688 15.508L35.6717 16.4535L34.4833 17.3266L33.2072 18.1636L31.8587 18.9696L30.4947 19.7549M8.47442 19.7549L6.55243 18.6338L4.73377 17.4816L3.09078 16.2416L2.26928 15.4356L1.69061 14.578L1.47878 13.6686L1.53045 13.4258M30.4947 19.7549L28.4849 20.8554L26.4234 21.9043L24.1862 22.8498L22.7499 23.3199L21.1947 23.6713L19.5517 23.8108L17.8881 23.6868L16.0539 23.2838L14.3747 22.7051L12.7989 22.0231L11.3109 21.2894L9.87459 20.5351L8.47442 19.7498M3.12178 14.981V15.2445M35.9352 14.8776V15.1566M27.2087 20.1218V20.1579M12.3752 20.5248V20.4369M26.6145 20.5248V20.4008M12.9901 20.9278V20.7159M26.0204 20.9278V20.6643M35.9352 14.8776L36.0385 15.0326M13.6152 21.3618V20.9949M25.3694 21.3618V20.9433M14.2972 21.8526V21.2223M24.6874 21.8681V21.2223M15.0516 22.3589V21.6253M23.9175 22.3434V21.6253M15.8886 22.6586V22.0283M23.0754 22.6379V22.0283M16.8496 22.9531V22.4468M22.1144 22.9376V22.4468M17.9346 23.1804V22.8136M21.0294 23.1649V22.8136M19.1591 23.3044V23.0048M19.8049 23.2838V23.0048M26.0152 21.4134L25.4365 20.9071M25.8034 20.7676L26.413 21.2378M26.7644 21.0466L26.1547 20.6074M26.4854 20.4524L27.1312 20.8554M27.4825 20.6798L26.8367 20.2974M27.1519 20.1424L27.8339 20.5093M28.1852 20.3181L27.4877 19.9874M27.8184 19.8118L28.5365 20.1269M28.9034 19.9358L28.1697 19.6361M28.521 19.4604L29.2754 19.7239M29.6577 19.5121L28.8879 19.2693M29.2547 19.0574L30.04 19.2848M30.443 19.0574L29.637 18.8456M30.04 18.6338L30.8615 18.8094M31.3007 18.5666L30.4792 18.3909M30.9184 18.1481L31.7553 18.2876M30.8305 18.1326L30.9184 18.1481M32.2307 18.0086L31.373 17.8846M31.8432 17.6056L32.7163 17.7089M33.2227 17.3783L32.365 17.2904M32.9075 16.9753L33.7445 17.0269M34.2715 16.6446L33.5017 16.6085M34.0958 16.2261L34.7933 16.2416M35.3203 15.8025H34.7417M35.372 15.3633L35.7905 15.3478M3.22511 15.3478L3.62811 15.3633M4.23777 15.8025H3.67977M4.1861 16.2416L4.8681 16.2261M5.47777 16.6291L4.70794 16.6446M5.25043 17.0269L6.03577 16.9753M6.57826 17.3059L5.75677 17.3783M6.28376 17.7089L7.10526 17.6056M7.59609 17.8846L6.7746 18.0086M8.05076 18.1636L8.13859 18.1481M7.22926 18.3031L8.05076 18.1636M8.48992 18.4064L7.68393 18.5614M8.12309 18.8249L8.92909 18.6338M9.31142 18.8611L8.54159 19.0729M8.94459 19.3003L9.69892 19.0729M10.0658 19.2848L9.33209 19.5276M9.71442 19.7394L10.4326 19.4759M10.7839 19.6516L10.0864 19.9306M10.4378 20.1424L11.1352 19.8273M11.4659 20.0029L10.7839 20.3336M11.1352 20.5093L11.8017 20.1579M12.1324 20.3129L11.4866 20.6953M11.8379 20.8709L12.4682 20.4679M12.8196 20.6229L12.1892 21.0621M12.5561 21.2378L13.1657 20.7831M13.5171 20.9381L12.9384 21.4289M13.3414 21.6201L13.8839 21.0931M14.3024 21.2171L13.7599 21.7958M14.1784 22.0076L14.6692 21.4289M15.0516 21.6201L14.6331 22.1781M15.0516 21.6201L15.2789 21.7234L15.4546 21.8268M15.1032 22.3693L15.4546 21.8268M15.8937 22.0179L15.5941 22.5604M15.8937 22.0179L16.1572 22.1419L16.3691 22.2298M16.1262 22.7206L16.3691 22.2298M16.8599 22.4416L16.6842 22.8963M16.8599 22.4416L17.1596 22.5449L17.3869 22.6328M17.2629 23.0358L17.3869 22.6328M17.9449 22.8084L17.8726 23.1598M17.9449 22.8084L18.2756 22.8808L18.5391 22.9324M18.5029 23.2476L18.5391 22.9324M19.1694 23.0048L19.1539 23.3044M19.1694 23.0048L19.3451 23.0203H19.4846M19.8152 23.0048L19.6241 23.0203H19.4846M19.8152 23.2838V23.0048M20.4249 22.9324L20.4611 23.2476M21.0397 22.8084L20.7091 22.8808L20.4301 22.9324M21.1121 23.1443L21.0397 22.8136M21.5977 22.6379L21.701 23.0409M22.1195 22.4468L21.8199 22.5501L21.5925 22.6379M22.29 22.8808L22.1144 22.4416M22.6052 22.2298L22.8325 22.7206M23.0754 22.0231L22.8119 22.1471L22.6 22.2349M23.3544 22.5501L23.0754 22.0231M23.5145 21.8319L23.8659 22.3589M23.9175 21.6253L23.6902 21.7286L23.5145 21.8319M24.336 22.1833L23.9175 21.6253M24.3205 21.4341L24.7907 21.9921M25.2092 21.8009L24.6822 21.2223M25.0335 21.0466L25.6277 21.6046M22.8997 21.8319L23.127 21.7286L23.2304 21.6769M16.0952 21.8319L16.5499 22.0438L17.4437 22.4106L18.4047 22.6741L19.4691 22.7981L20.5334 22.6741L21.8974 22.2556L22.6517 21.9404M29.9987 19.4914L29.017 20.0339L28.1077 20.5248L27.1622 21.0156L26.1805 21.5064L25.2557 21.9249L24.5375 22.2401L23.8555 22.5036L23.189 22.7464L22.5587 22.9376L20.9674 23.3044L20.2131 23.3923L19.4794 23.4284L18.6734 23.3923L17.8674 23.2889L16.9736 23.1133L16.1159 22.8704L15.3461 22.6276L14.5401 22.3124L13.6669 21.9456L12.5147 21.4031L11.2386 20.7573L10.1536 20.1631L8.94459 19.4966M30.195 19.6206L32.1015 18.4994L33.9202 17.3628L35.5477 16.1383L36.3537 15.353L36.9323 14.516L37.1442 13.679M1.91278 13.8443L2.05228 14.5108L2.74978 15.4925L3.74694 16.4018L4.8836 17.2594L6.1236 18.0654L7.42043 18.8508L8.74826 19.6206M8.74826 19.6206L10.6909 20.6849L12.7369 21.7183L14.9224 22.6638L16.3226 23.1339L17.8467 23.4646L19.4381 23.5886L21.0449 23.4646L22.8274 23.0616L24.4704 22.4829L25.9945 21.8164L27.4464 21.0983L28.8465 20.3646L30.2105 19.6103M37.3973 92.0519L38.0277 13.7513M0.987949 13.7926L2.07295 92.0932M38.0483 11.9016V11.2713M0.951782 11.3075L0.967282 11.9378M37.5368 13.8598L37.5523 13.6686M9.17192 19.4398L7.40493 18.4064L5.84977 17.4454L4.53744 16.5206L3.73144 15.8541L3.10111 15.2238L2.73428 14.6658M36.2968 14.6141L36.2245 14.7691L35.806 15.3116L35.1395 15.9781L34.1785 16.7118L32.9695 17.5333L31.5022 18.4426L29.7714 19.4398M29.7714 19.4398L27.9527 20.4369L26.289 21.2946L24.7494 22.0128L23.6644 22.4519L22.6 22.8033L21.4995 23.1029L20.3784 23.2786L19.2572 23.3303L18.1567 23.2269L16.9839 22.9996L15.6716 22.5966L14.2197 22.0386L12.6439 21.3204L10.9648 20.4473L9.16159 19.4501" stroke="#06B597" stroke-width="0.3" stroke-linecap="round" stroke-linejoin="round"/>
</svg>
