<svg width="39" height="104" viewBox="0 0 39 104" fill="none" xmlns="http://www.w3.org/2000/svg">
<path fill-rule="evenodd" clip-rule="evenodd" d="M19.9776 1C20.6443 1 22.4776 1.2 24.4776 2C26.4776 2.8 29.9776 4.66667 31.4776 5.5C33.6443 6.66667 37.9776 9.3 37.9776 10.5C37.9776 11.7 37.6443 12.3333 37.4776 12.5L37.9776 13.5L37.7276 14.75L37.9776 14.5V15L37.4776 91.5C37.4776 92 37.3776 93.1 36.9776 93.5C36.9038 93.5738 36.8081 93.6804 36.6875 93.8148C35.991 94.5907 34.4608 96.2953 31.4776 98C28.6776 99.6 26.9776 100.667 26.4776 101L22.4776 102.5L19.9776 103C18.9776 103 16.5776 102.8 14.9776 102C13.3776 101.2 8.9776 98.6667 6.9776 97.5C5.81093 96.6667 3.2776 94.7 2.4776 93.5L1.9776 92L1.4776 45L0.9776 14.5V13.5L1.26666 12.5469L1.05573 10.9844C1.18073 10.5078 1.56041 9.46719 2.07916 9.11719C2.28218 8.98021 2.71264 8.66097 3.23724 8.27192C4.38821 7.41834 5.99232 6.22871 6.64166 5.89062C7.39791 5.49687 11.587 3.35156 13.587 2.32812L18.1104 1.07031L19.9776 1ZM3.34857 16.7258L5.4776 18.5L11.5627 21.0745L3.34857 16.7258ZM27.3369 20.9333L31.4776 19.5L34.7026 17.35L27.3369 20.9333Z" fill="#CAFBE0"/>
<path d="M24.4776 2L24.4219 2.13927L24.4776 2ZM19.9776 1V0.849894L19.972 0.850106L19.9776 1ZM31.4776 5.5L31.4047 5.63113L31.4065 5.63207L31.4776 5.5ZM37.4776 12.5L37.3715 12.3939L37.2951 12.4704L37.3434 12.5671L37.4776 12.5ZM37.9776 13.5L38.1247 13.5294L38.1348 13.479L38.1118 13.4329L37.9776 13.5ZM37.7276 14.75L37.5805 14.7206L37.4834 15.2064L37.8337 14.8561L37.7276 14.75ZM37.9776 14.5H38.1276V14.1379L37.8715 14.3939L37.9776 14.5ZM37.9776 15L38.1276 15.001V15H37.9776ZM37.4776 91.5L37.3276 91.499V91.5H37.4776ZM36.9776 93.5L37.0837 93.6061L37.0837 93.6061L36.9776 93.5ZM36.6875 93.8148L36.7991 93.915L36.7991 93.915L36.6875 93.8148ZM31.4776 98L31.552 98.1302L31.4776 98ZM26.4776 101L26.5303 101.14L26.5464 101.134L26.5608 101.125L26.4776 101ZM22.4776 102.5L22.507 102.647L22.5189 102.645L22.5303 102.64L22.4776 102.5ZM19.9776 103V103.15H19.9925L20.007 103.147L19.9776 103ZM6.9776 97.5L6.89004 97.6226L6.90202 97.6296L6.9776 97.5ZM2.4776 93.5L2.3353 93.5474L2.34165 93.5665L2.35279 93.5832L2.4776 93.5ZM1.9776 92L1.82761 92.0016L1.82786 92.0251L1.8353 92.0474L1.9776 92ZM1.4776 45L1.62759 44.9984L1.62758 44.9975L1.4776 45ZM0.9776 14.5H0.82758L0.82762 14.5025L0.9776 14.5ZM0.9776 13.5L0.834056 13.4565L0.8276 13.4778V13.5H0.9776ZM1.26666 12.5469L1.41021 12.5904L1.41968 12.5592L1.41531 12.5268L1.26666 12.5469ZM1.05573 10.9844L0.910633 10.9463L0.903103 10.975L0.907074 11.0044L1.05573 10.9844ZM2.07916 9.11719L1.99527 8.99284L2.07916 9.11719ZM3.23724 8.27192L3.3266 8.3924H3.3266L3.23724 8.27192ZM6.64166 5.89062L6.57239 5.75758L6.64166 5.89062ZM13.587 2.32812L13.5468 2.18361L13.5322 2.18768L13.5186 2.19459L13.587 2.32812ZM18.1104 1.07031L18.1048 0.920419L18.0872 0.921081L18.0702 0.925796L18.1104 1.07031ZM5.4776 18.5L5.38157 18.6152L5.39866 18.6295L5.41915 18.6381L5.4776 18.5ZM3.34857 16.7258L3.41875 16.5932L3.25254 16.841L3.34857 16.7258ZM11.5627 21.0745L11.5043 21.2126L11.6329 20.9419L11.5627 21.0745ZM31.4776 19.5L31.5267 19.6417L31.5448 19.6355L31.5608 19.6248L31.4776 19.5ZM27.3369 20.9333L27.2712 20.7984L27.3859 21.0751L27.3369 20.9333ZM34.7026 17.35L34.7858 17.4748L34.637 17.2151L34.7026 17.35ZM24.5333 1.86073C22.515 1.05342 20.6627 0.85 19.9776 0.85V1.15C20.6258 1.15 22.4402 1.34658 24.4219 2.13927L24.5333 1.86073ZM31.5504 5.36888C30.0511 4.53589 26.5433 2.66473 24.5333 1.86073L24.4219 2.13927C26.4119 2.93527 29.9041 4.79744 31.4048 5.63112L31.5504 5.36888ZM38.1276 10.5C38.1276 10.3077 38.0422 10.1059 37.913 9.90683C37.7821 9.70517 37.5962 9.49076 37.372 9.26974C36.9233 8.82746 36.3063 8.34386 35.6265 7.86488C34.2659 6.90618 32.6354 5.95305 31.5487 5.36793L31.4065 5.63207C32.4865 6.21362 34.106 7.16049 35.4537 8.11012C36.1281 8.5853 36.7298 9.05796 37.1614 9.48338C37.3773 9.69622 37.5467 9.89353 37.6613 10.0701C37.7776 10.2493 37.8276 10.3923 37.8276 10.5H38.1276ZM37.5837 12.6061C37.6908 12.499 37.8253 12.2736 37.9331 11.9328C38.0424 11.5875 38.1276 11.1138 38.1276 10.5H37.8276C37.8276 11.0862 37.7462 11.5291 37.6471 11.8422C37.5466 12.1598 37.4311 12.3344 37.3715 12.3939L37.5837 12.6061ZM38.1118 13.4329L37.6118 12.4329L37.3434 12.5671L37.8434 13.5671L38.1118 13.4329ZM37.8747 14.7794L38.1247 13.5294L37.8305 13.4706L37.5805 14.7206L37.8747 14.7794ZM37.8715 14.3939L37.6215 14.6439L37.8337 14.8561L38.0837 14.6061L37.8715 14.3939ZM38.1276 15V14.5H37.8276V15H38.1276ZM37.6276 91.501L38.1276 15.001L37.8276 14.999L37.3276 91.499L37.6276 91.501ZM37.0837 93.6061C37.2041 93.4856 37.2947 93.3207 37.3641 93.1439C37.4341 92.9655 37.4863 92.7654 37.5249 92.566C37.602 92.1674 37.6276 91.7577 37.6276 91.5H37.3276C37.3276 91.7423 37.3032 92.1326 37.2303 92.509C37.1939 92.6971 37.1461 92.8782 37.0848 93.0343C37.023 93.1918 36.9511 93.3144 36.8715 93.3939L37.0837 93.6061ZM36.7991 93.915C36.921 93.7792 37.0134 93.6763 37.0837 93.6061L36.8715 93.3939C36.7941 93.4713 36.6953 93.5815 36.5758 93.7146L36.7991 93.915ZM31.552 98.1302C34.5551 96.4142 36.0978 94.6962 36.7991 93.915L36.5758 93.7146C35.8842 94.4851 34.3664 96.1765 31.4032 97.8698L31.552 98.1302ZM26.5608 101.125C27.0568 100.794 28.7534 99.7294 31.552 98.1302L31.4032 97.8698C28.6018 99.4706 26.8984 100.539 26.3944 100.875L26.5608 101.125ZM22.5303 102.64L26.5303 101.14L26.4249 100.86L22.4249 102.36L22.5303 102.64ZM20.007 103.147L22.507 102.647L22.4482 102.353L19.9482 102.853L20.007 103.147ZM14.9105 102.134C15.73 102.544 16.747 102.797 17.6786 102.948C18.6116 103.099 19.4697 103.15 19.9776 103.15V102.85C19.4855 102.85 18.6436 102.801 17.7266 102.652C16.8082 102.503 15.8252 102.256 15.0447 101.866L14.9105 102.134ZM6.90202 97.6296C8.90025 98.7952 13.3052 101.331 14.9105 102.134L15.0447 101.866C13.45 101.069 9.05495 98.5381 7.05318 97.3704L6.90202 97.6296ZM2.35279 93.5832C2.76587 94.2028 3.61457 95.0066 4.49306 95.7519C5.37591 96.5008 6.30428 97.2034 6.89041 97.6221L7.06479 97.3779C6.48425 96.9633 5.56262 96.2658 4.68714 95.5231C3.8073 94.7767 2.98933 93.9972 2.60241 93.4168L2.35279 93.5832ZM1.8353 92.0474L2.3353 93.5474L2.6199 93.4526L2.1199 91.9526L1.8353 92.0474ZM1.32761 45.0016L1.82761 92.0016L2.12759 91.9984L1.62759 44.9984L1.32761 45.0016ZM0.82762 14.5025L1.32762 45.0025L1.62758 44.9975L1.12758 14.4975L0.82762 14.5025ZM0.8276 13.5V14.5H1.1276V13.5H0.8276ZM1.12312 12.5033L0.834056 13.4565L1.12114 13.5435L1.41021 12.5904L1.12312 12.5033ZM0.907074 11.0044L1.11801 12.5669L1.41531 12.5268L1.20438 10.9643L0.907074 11.0044ZM1.99527 8.99284C1.70084 9.19149 1.46197 9.57075 1.28469 9.93813C1.1045 10.3116 0.975206 10.7001 0.910633 10.9463L1.20082 11.0224C1.26124 10.7921 1.38429 10.422 1.55488 10.0685C1.72839 9.70894 1.93874 9.39288 2.16306 9.24153L1.99527 8.99284ZM3.14789 8.15144C2.62138 8.54191 2.1947 8.85828 1.99527 8.99284L2.16306 9.24153C2.36966 9.10214 2.80391 8.78004 3.3266 8.3924L3.14789 8.15144ZM6.57239 5.75758C6.23675 5.93233 5.66473 6.32076 5.04048 6.76583C4.41307 7.21316 3.72314 7.72482 3.14789 8.15144L3.3266 8.3924C3.90231 7.96544 4.58992 7.4555 5.21464 7.0101C5.84252 6.56244 6.39723 6.18701 6.71093 6.02367L6.57239 5.75758ZM13.5186 2.19459C11.519 3.21783 7.32925 5.36351 6.57239 5.75758L6.71093 6.02367C7.46657 5.63024 11.6549 3.48529 13.6553 2.46166L13.5186 2.19459ZM18.0702 0.925796L13.5468 2.18361L13.6272 2.47264L18.1506 1.21483L18.0702 0.925796ZM19.972 0.850106L18.1048 0.920419L18.1161 1.22021L19.9832 1.14989L19.972 0.850106ZM5.57363 18.3848L3.4446 16.6106L3.25254 16.841L5.38157 18.6152L5.57363 18.3848ZM11.6212 20.9363L5.53605 18.3619L5.41915 18.6381L11.5043 21.2126L11.6212 20.9363ZM3.27838 16.8584L11.4925 21.207L11.6329 20.9419L3.41875 16.5932L3.27838 16.8584ZM31.4285 19.3583L27.2878 20.7916L27.3859 21.0751L31.5267 19.6417L31.4285 19.3583ZM34.6194 17.2252L31.3944 19.3752L31.5608 19.6248L34.7858 17.4748L34.6194 17.2252ZM27.4025 21.0682L34.7682 17.4849L34.637 17.2151L27.2712 20.7984L27.4025 21.0682Z" fill="#06B597"/>
<path d="M37.9088 13.5291V13.4413V13.5291ZM16.1313 21.8526L16.5343 22.0438L17.4437 22.3951L18.4253 22.6948L19.5103 22.7981L20.5953 22.6741L21.577 22.3951L22.4708 22.0283L22.91 21.8164M1.17905 11.8861L1.35472 12.2168L1.17905 11.8861ZM37.8933 11.5348L37.9088 11.3436L37.8933 11.5348ZM19.4742 23.0254V23.3044V23.0254ZM30.0038 19.4914L29.8798 19.4398L29.8281 19.4243L29.7765 19.4398M8.96519 19.4914L9.08919 19.4398L9.14086 19.4243L9.17703 19.4398M8.96519 19.4914L8.0042 18.9334L7.14653 18.4271L6.28887 17.9001L5.43121 17.3576L4.69754 16.8306L4.17054 16.4276L3.70038 16.0608L3.29738 15.694L2.96671 15.3426L2.35705 14.4695L2.28472 14.2783M36.7566 14.206L36.6533 14.485L36.3536 14.9758L35.9351 15.446L35.4959 15.8851L34.9534 16.3398L34.3076 16.8099L33.3621 17.4764L32.2255 18.1739L31.1921 18.8043L30.0038 19.4863M15.222 102.008L14.013 101.517L12.2615 100.623L8.93936 98.6652M30.5205 98.629L33.6153 96.5985L35.0671 95.498L36.3071 94.3252L36.8858 93.5709L37.2681 92.7494L37.3714 92.0519M37.7899 12.8213L37.9811 13.3638V14.0975L37.7383 14.795L37.2836 15.477L36.5293 16.2468L35.6561 16.9804L35.3409 17.2078L34.0441 18.1016L30.8098 20.0236M2.08838 92.0932L2.17622 92.7752L2.50688 93.4934L2.99771 94.1754L3.10105 94.3149L3.59188 94.8212L4.71304 95.8029L5.95304 96.7122L8.8722 98.6342M8.11786 20.0339L5.19871 18.2824L3.83471 17.3731L2.59472 16.3915L1.80939 15.6061L1.23072 14.733L1.00339 14.0355L1.05505 13.3018L1.21005 12.8988M1.24622 12.9505L1.14289 13.214L1.10672 13.9321L1.31855 14.6503L1.87655 15.4873L2.68255 16.2933L4.32554 17.5694L6.21654 18.7784L8.19536 19.9151M37.9088 13.4413V13.3018L37.7331 12.8316M30.753 19.9151L33.2691 18.4478L35.5786 16.8926L36.4518 16.159L37.2061 15.3891L37.6453 14.7226L37.9088 14.0251V13.5343M30.4946 19.7601L31.7346 19.0419L32.8196 18.4116L33.9924 17.6573L34.9741 16.9753L35.6561 16.4483L36.2658 15.9213L36.7721 15.3943L37.1028 14.9396L37.3456 14.5211L37.5006 14.051L37.5523 13.5963L37.4799 13.3535M8.47436 19.7549L9.73503 20.4731L10.8717 21.0828L12.1995 21.7493L13.424 22.3279L14.3488 22.7103L15.2943 23.0616L16.2553 23.3613L17.0407 23.5524L17.826 23.6919L18.663 23.7798L19.5 23.8159L21.1637 23.6764L21.9335 23.5369L22.7395 23.3251L24.1913 22.8549L25.5553 22.2969L27.1828 21.5271L28.8258 20.6901L30.4895 19.7653M1.50972 13.3896L1.47355 13.6531L1.68539 14.578L1.92822 14.9965L2.27955 15.4356L3.10105 16.2416L4.04654 17.0114L5.37437 17.9208L6.86237 18.8301L8.4692 19.7549M8.1902 19.9099L10.7787 21.3463L13.579 22.6586L14.8758 23.1649L16.2553 23.6041L17.4643 23.8676L18.725 24.0071L20.0218 24.0226L21.298 23.8831L22.8377 23.5524L24.274 23.0823L26.5835 22.1368L28.7328 21.0518L30.7633 19.9151M30.8356 20.0391L28.7896 21.1758L26.6403 22.2608L24.3308 23.2218L22.8945 23.6764L21.3393 24.0278L20.0425 24.1518H18.7147L17.4385 23.9968L16.2295 23.7333L14.8293 23.3148L13.517 22.7878L13.114 22.6121L11.5227 21.8784L8.1282 20.0443M8.88253 98.6445L10.4894 99.6417L12.1685 100.623L13.951 101.517L15.8575 102.287L17.1182 102.654L18.446 102.897L19.7067 102.969L20.9467 102.897L22.135 102.669L23.2561 102.354L23.4835 102.282L24.3205 101.967L25.9118 101.269L27.4153 100.484L30.5308 98.6497M8.41753 4.95765L10.0967 4.04832L10.5875 3.80549M30.8408 18.1843L33.6411 16.5413L34.9689 15.6681L36.1934 14.7433L37.0666 13.9218L37.7331 13.0125L38.0121 12.315V11.912M30.7375 5.00415L32.4683 5.96515L34.1474 6.96231L35.6871 8.02664L36.9994 9.16331L37.5419 9.80914L37.9088 10.4911L38.0483 11.2093L37.9449 11.943L37.5419 12.7128L36.9323 13.4465L35.6561 14.5676L34.1526 15.601L32.5251 16.5981L30.846 17.5591M1.00339 11.9378L0.987888 12.1651L1.19972 12.8626L1.63889 13.5601L2.21755 14.206L2.91505 14.8363L4.54254 16.0246L6.29404 17.1251L8.1127 18.1739M8.1127 17.5436L6.39737 16.5465L4.76988 15.5338L3.23021 14.4488L1.93338 13.276L1.42705 12.6301L1.07572 11.9481L0.951721 11.23L1.10672 10.4963L1.52522 9.74197L2.19172 9.00831L3.50405 7.92331L3.55571 7.88715M8.1747 18.2256L6.35604 17.1613L4.60454 16.0763V16.0608M33.6359 16.531L33.5843 16.5465L30.7685 18.2256M30.6651 4.95249L28.9705 4.04316L27.2396 3.14933L25.4055 2.32783L23.4473 1.63033L22.1712 1.29967L20.8227 1.07233L19.5465 1L18.2858 1.07233L17.0975 1.28417L15.9453 1.56316L13.8993 2.26066L11.9929 3.09766L10.1742 4.00699L8.4227 4.95249M1.35472 12.2168L1.50972 12.532L2.01605 13.1778L3.27671 14.3506L4.80088 15.415L6.46454 16.4276L8.17986 17.4248M8.4227 4.95249L6.74354 5.87732L5.10054 6.83832L3.59705 7.85098L2.28472 8.95148L1.63889 9.66964L1.22039 10.424L1.08089 11.1421L1.18422 11.8603V11.8758M37.9139 11.3333L37.9501 11.1215L37.8106 10.4033L37.4438 9.73681L36.9168 9.09097L35.6044 7.95431L34.0648 6.90548L32.3856 5.90832L30.6703 4.94732M30.7581 17.4196L32.4528 16.4586L34.0596 15.477L35.5631 14.4281L36.8238 13.307L37.4334 12.5888L37.8364 11.8345L37.8881 11.5193M8.80503 18.5821L8.1747 18.2308L8.80503 18.5821ZM30.7736 18.2308L28.8826 19.2641L26.9245 20.2613L26.2063 20.5764M8.10236 17.5488V18.1791V17.5488ZM8.10236 18.1791L10.045 19.2641L12.0755 20.2974L14.2455 21.2223L15.7335 21.7493L17.361 22.1316L18.6733 22.2866L20.0012 22.3021L21.3135 22.1626L22.5535 21.8991L24.1293 21.4289L25.5966 20.8503L26.9968 20.2199L28.955 19.2228L30.846 18.1739M30.846 17.5436V18.1739V17.5436ZM30.846 17.5436V17.5281L30.8305 17.5126V17.4971L30.815 17.4816V17.4661L30.7995 17.4506L30.784 17.4351H30.7685M8.1902 17.4351L9.88486 18.3806L11.6364 19.3054L13.4912 20.1424L15.501 20.8761L16.7978 21.2274L18.1773 21.4548L19.4742 21.5271L20.771 21.4548L22.011 21.2636L23.1631 20.9639L25.2608 20.2303L27.2035 19.3571L29.0221 18.4116L30.7736 17.4299M8.12303 17.5539V17.5023L8.13853 17.4868L8.15403 17.4713V17.4558L8.16953 17.4403H8.18503M30.8511 17.5643L29.0841 18.5459L27.2655 19.4914L25.3228 20.3646L23.2045 21.0983L22.0317 21.3979L20.771 21.6098L19.4587 21.6821L18.1463 21.6098L16.7462 21.3824L15.4338 21.0311L13.424 20.2974L11.5537 19.4398L9.80219 18.5149L8.10753 17.5694M30.2156 19.6309L28.2575 20.6953L26.227 21.7286L24.0415 22.6534L22.6413 23.1236L21.1378 23.4543L19.531 23.5938L17.9242 23.4904L16.1417 23.0719L14.4987 22.4933L12.959 21.8268L11.5227 21.1293L10.1225 20.3749L8.75853 19.6206M8.75853 19.6206L6.86754 18.5201L5.08504 17.3834L3.45755 16.159L2.65155 15.3891L2.07288 14.5521L1.89722 13.834M37.1234 13.7978L36.9839 14.4798L36.2864 15.477L35.2738 16.3863L34.1216 17.2439L32.861 18.0499L31.5641 18.8353L30.2156 19.6206M37.4903 13.3586L37.5419 13.5705L37.3663 14.4953L36.6688 15.508L35.6716 16.4535L34.4833 17.3266L33.2071 18.1636L31.8586 18.9696L30.4946 19.7549M8.47436 19.7549L6.55237 18.6338L4.73371 17.4816L3.09071 16.2416L2.26922 15.4356L1.69055 14.578L1.47872 13.6686L1.53039 13.4258M30.4946 19.7549L28.4848 20.8554L26.4233 21.9043L24.1861 22.8498L22.7498 23.3199L21.1947 23.6713L19.5517 23.8108L17.888 23.6868L16.0538 23.2838L14.3747 22.7051L12.7988 22.0231L11.3109 21.2894L9.87453 20.5351L8.47436 19.7498M3.12171 14.981V15.2445V14.981ZM35.9351 14.8776V15.1566V14.8776ZM27.2086 20.1218V20.1579V20.1218ZM12.3752 20.5248V20.4369V20.5248ZM26.6145 20.5248V20.4008V20.5248ZM12.99 20.9278V20.7159V20.9278ZM26.0203 20.9278V20.6643V20.9278ZM35.9351 14.8776L36.0384 15.0326L35.9351 14.8776ZM13.6152 21.3618V20.9949V21.3618ZM25.3693 21.3618V20.9433V21.3618ZM14.2972 21.8526V21.2223V21.8526ZM24.6873 21.8681V21.2223V21.8681ZM15.0515 22.3589V21.6253V22.3589ZM23.9175 22.3434V21.6253V22.3434ZM15.8885 22.6586V22.0283V22.6586ZM23.0753 22.6379V22.0283V22.6379ZM16.8495 22.9531V22.4468V22.9531ZM22.1143 22.9376V22.4468V22.9376ZM17.9345 23.1804V22.8136V23.1804ZM21.0293 23.1649V22.8136V23.1649ZM19.159 23.3044V23.0048V23.3044ZM19.8048 23.2838V23.0048V23.2838ZM26.0151 21.4134L25.4365 20.9071L26.0151 21.4134ZM25.8033 20.7676L26.413 21.2378L25.8033 20.7676ZM26.7643 21.0466L26.1546 20.6074L26.7643 21.0466ZM26.4853 20.4524L27.1311 20.8554L26.4853 20.4524ZM27.4825 20.6798L26.8366 20.2974L27.4825 20.6798ZM27.1518 20.1424L27.8338 20.5093L27.1518 20.1424ZM28.1851 20.3181L27.4876 19.9874L28.1851 20.3181ZM27.8183 19.8118L28.5365 20.1269L27.8183 19.8118ZM28.9033 19.9358L28.1696 19.6361L28.9033 19.9358ZM28.521 19.4604L29.2753 19.7239L28.521 19.4604ZM29.6576 19.5121L28.8878 19.2693L29.6576 19.5121ZM29.2546 19.0574L30.04 19.2848L29.2546 19.0574ZM30.443 19.0574L29.637 18.8456L30.443 19.0574ZM30.04 18.6338L30.8615 18.8094L30.04 18.6338ZM31.3006 18.5666L30.4791 18.3909L31.3006 18.5666ZM30.9183 18.1481L31.7553 18.2876L30.9183 18.1481ZM30.8305 18.1326L30.9183 18.1481L30.8305 18.1326ZM32.2306 18.0086L31.373 17.8846L32.2306 18.0086ZM31.8431 17.6056L32.7163 17.7089L31.8431 17.6056ZM33.2226 17.3783L32.365 17.2904L33.2226 17.3783ZM32.9075 16.9753L33.7444 17.0269L32.9075 16.9753ZM34.2714 16.6446L33.5016 16.6085L34.2714 16.6446ZM34.0958 16.2261L34.7933 16.2416L34.0958 16.2261ZM35.3203 15.8025H34.7416H35.3203ZM35.3719 15.3633L35.7904 15.3478L35.3719 15.3633ZM3.22505 15.3478L3.62805 15.3633L3.22505 15.3478ZM4.23771 15.8025H3.67971H4.23771ZM4.18604 16.2416L4.86804 16.2261L4.18604 16.2416ZM5.47771 16.6291L4.70788 16.6446L5.47771 16.6291ZM5.25037 17.0269L6.0357 16.9753L5.25037 17.0269ZM6.5782 17.3059L5.75671 17.3783L6.5782 17.3059ZM6.2837 17.7089L7.1052 17.6056L6.2837 17.7089ZM7.59603 17.8846L6.77454 18.0086L7.59603 17.8846ZM8.0507 18.1636L8.13853 18.1481L8.0507 18.1636ZM7.2292 18.3031L8.0507 18.1636L7.2292 18.3031ZM8.48986 18.4064L7.68387 18.5614L8.48986 18.4064ZM8.12303 18.8249L8.92903 18.6338L8.12303 18.8249ZM9.31136 18.8611L8.54153 19.0729L9.31136 18.8611ZM8.94453 19.3003L9.69886 19.0729L8.94453 19.3003ZM10.0657 19.2848L9.33203 19.5276L10.0657 19.2848ZM9.71436 19.7394L10.4325 19.4759L9.71436 19.7394ZM10.7839 19.6516L10.0864 19.9306L10.7839 19.6516ZM10.4377 20.1424L11.1352 19.8273L10.4377 20.1424ZM11.4659 20.0029L10.7839 20.3336L11.4659 20.0029ZM11.1352 20.5093L11.8017 20.1579L11.1352 20.5093ZM12.1324 20.3129L11.4865 20.6953L12.1324 20.3129ZM11.8379 20.8709L12.4682 20.4679L11.8379 20.8709ZM12.8195 20.6229L12.1892 21.0621L12.8195 20.6229ZM12.556 21.2378L13.1657 20.7831L12.556 21.2378ZM13.517 20.9381L12.9383 21.4289L13.517 20.9381ZM13.3413 21.6201L13.8838 21.0931L13.3413 21.6201ZM14.3023 21.2171L13.7598 21.7958L14.3023 21.2171ZM14.1783 22.0076L14.6692 21.4289L14.1783 22.0076ZM15.0515 21.6201L14.633 22.1781L15.0515 21.6201ZM15.0515 21.6201L15.2788 21.7234L15.4545 21.8268M15.1032 22.3693L15.4545 21.8268L15.1032 22.3693ZM15.8937 22.0179L15.594 22.5604L15.8937 22.0179ZM15.8937 22.0179L16.1572 22.1419L16.369 22.2298M16.1262 22.7206L16.369 22.2298L16.1262 22.7206ZM16.8598 22.4416L16.6842 22.8963L16.8598 22.4416ZM16.8598 22.4416L17.1595 22.5449L17.3868 22.6328M17.2628 23.0358L17.3868 22.6328L17.2628 23.0358ZM17.9448 22.8084L17.8725 23.1598L17.9448 22.8084ZM17.9448 22.8084L18.2755 22.8808L18.539 22.9324M18.5028 23.2476L18.539 22.9324L18.5028 23.2476ZM19.1693 23.0048L19.1538 23.3044L19.1693 23.0048ZM19.1693 23.0048L19.345 23.0203H19.4845M19.8152 23.0048L19.624 23.0203H19.4845M19.8152 23.2838V23.0048V23.2838ZM20.4248 22.9324L20.461 23.2476L20.4248 22.9324ZM21.0397 22.8084L20.709 22.8808L20.43 22.9324M21.112 23.1443L21.0397 22.8136L21.112 23.1443ZM21.5977 22.6379L21.701 23.0409L21.5977 22.6379ZM22.1195 22.4468L21.8198 22.5501L21.5925 22.6379M22.29 22.8808L22.1143 22.4416L22.29 22.8808ZM22.6052 22.2298L22.8325 22.7206L22.6052 22.2298ZM23.0753 22.0231L22.8118 22.1471L22.6 22.2349M23.3543 22.5501L23.0753 22.0231L23.3543 22.5501ZM23.5145 21.8319L23.8658 22.3589L23.5145 21.8319ZM23.9175 21.6253L23.6901 21.7286L23.5145 21.8319M24.336 22.1833L23.9175 21.6253L24.336 22.1833ZM24.3205 21.4341L24.7906 21.9921L24.3205 21.4341ZM25.2091 21.8009L24.6821 21.2223L25.2091 21.8009ZM25.0335 21.0466L25.6276 21.6046L25.0335 21.0466ZM22.8996 21.8319L23.127 21.7286L23.2303 21.6769M16.0952 21.8319L16.5498 22.0438L17.4437 22.4106L18.4047 22.6741L19.469 22.7981L20.5333 22.6741L21.8973 22.2556L22.6516 21.9404M29.9986 19.4914L29.017 20.0339L28.1076 20.5248L27.1621 21.0156L26.1805 21.5064L25.2556 21.9249L24.5375 22.2401L23.8555 22.5036L23.189 22.7464L22.5587 22.9376L20.9673 23.3044L20.213 23.3923L19.4793 23.4284L18.6733 23.3923L17.8673 23.2889L16.9735 23.1133L16.1158 22.8704L15.346 22.6276L14.54 22.3124L13.6668 21.9456L12.5147 21.4031L11.2385 20.7573L10.1535 20.1631L8.94453 19.4966M30.195 19.6206L32.1015 18.4994L33.9201 17.3628L35.5476 16.1383L36.3536 15.353L36.9323 14.516L37.1441 13.679M1.91272 13.8443L2.05222 14.5108L2.74972 15.4925L3.74688 16.4018L4.88354 17.2594L6.12354 18.0654L7.42037 18.8508L8.7482 19.6206M8.7482 19.6206L10.6909 20.6849L12.7368 21.7183L14.9223 22.6638L16.3225 23.1339L17.8467 23.4646L19.438 23.5886L21.0448 23.4646L22.8273 23.0616L24.4703 22.4829L25.9945 21.8164L27.4463 21.0983L28.8465 20.3646L30.2105 19.6103M37.3973 92.0519L38.0276 13.7513L37.3973 92.0519ZM0.987888 13.7926L2.07288 92.0932L0.987888 13.7926ZM38.0483 11.9016V11.2713V11.9016ZM0.951721 11.3075L0.967221 11.9378L0.951721 11.3075ZM37.5368 13.8598L37.5523 13.6686L37.5368 13.8598ZM9.17186 19.4398L7.40487 18.4064L5.84971 17.4454L4.53738 16.5206L3.73138 15.8541L3.10105 15.2238L2.73422 14.6658M36.2968 14.6141L36.2244 14.7691L35.8059 15.3116L35.1394 15.9781L34.1784 16.7118L32.9695 17.5333L31.5021 18.4426L29.7713 19.4398M29.7713 19.4398L27.9526 20.4369L26.289 21.2946L24.7493 22.0128L23.6643 22.4519L22.6 22.8033L21.4995 23.1029L20.3783 23.2786L19.2572 23.3303L18.1567 23.2269L16.9838 22.9996L15.6715 22.5966L14.2197 22.0386L12.6439 21.3204L10.9647 20.4473L9.16153 19.4501" fill="#CAFBE0"/>
<path d="M37.9088 13.5291V13.4413M16.1313 21.8526L16.5343 22.0438L17.4437 22.3951L18.4253 22.6948L19.5103 22.7981L20.5953 22.6741L21.577 22.3951L22.4708 22.0283L22.91 21.8164M1.17905 11.8861L1.35472 12.2168M37.8933 11.5348L37.9088 11.3436M19.4742 23.0254V23.3044M30.0038 19.4914L29.8798 19.4398L29.8281 19.4243L29.7765 19.4398M8.9652 19.4914L9.08919 19.4398L9.14086 19.4243L9.17703 19.4398M8.9652 19.4914L8.0042 18.9334L7.14653 18.4271L6.28887 17.9001L5.43121 17.3576L4.69754 16.8306L4.17054 16.4276L3.70038 16.0608L3.29738 15.694L2.96671 15.3426L2.35705 14.4695L2.28472 14.2783M36.7566 14.206L36.6533 14.485L36.3536 14.9758L35.9351 15.446L35.4959 15.8851L34.9534 16.3398L34.3076 16.8099L33.3621 17.4764L32.2255 18.1739L31.1921 18.8043L30.0038 19.4863M15.222 102.008L14.013 101.517L12.2615 100.623L8.93936 98.6652M30.5205 98.629L33.6153 96.5985L35.0671 95.498L36.3071 94.3252L36.8858 93.5709L37.2681 92.7494L37.3714 92.0519M37.7899 12.8213L37.9811 13.3638V14.0975L37.7383 14.795L37.2836 15.477L36.5293 16.2468L35.6561 16.9804L35.3409 17.2078L34.0441 18.1016L30.8098 20.0236M2.08838 92.0932L2.17622 92.7752L2.50688 93.4934L2.99771 94.1754L3.10105 94.3149L3.59188 94.8212L4.71304 95.8029L5.95304 96.7122L8.8722 98.6342M8.11786 20.0339L5.19871 18.2824L3.83471 17.3731L2.59472 16.3915L1.80939 15.6061L1.23072 14.733L1.00339 14.0355L1.05505 13.3018L1.21005 12.8988M1.24622 12.9505L1.14289 13.214L1.10672 13.9321L1.31855 14.6503L1.87655 15.4873L2.68255 16.2933L4.32554 17.5694L6.21654 18.7784L8.19536 19.9151M37.9088 13.4413V13.3018L37.7331 12.8316M30.753 19.9151L33.2691 18.4478L35.5786 16.8926L36.4518 16.159L37.2061 15.3891L37.6453 14.7226L37.9088 14.0251V13.5343M30.4946 19.7601L31.7346 19.0419L32.8196 18.4116L33.9924 17.6573L34.9741 16.9753L35.6561 16.4483L36.2658 15.9213L36.7721 15.3943L37.1028 14.9396L37.3456 14.5211L37.5006 14.051L37.5523 13.5963L37.4799 13.3535M8.47436 19.7549L9.73503 20.4731L10.8717 21.0828L12.1995 21.7493L13.424 22.3279L14.3488 22.7103L15.2943 23.0616L16.2553 23.3613L17.0407 23.5524L17.826 23.6919L18.663 23.7798L19.5 23.8159L21.1637 23.6764L21.9335 23.5369L22.7395 23.3251L24.1913 22.8549L25.5553 22.2969L27.1828 21.5271L28.8258 20.6901L30.4895 19.7653M1.50972 13.3896L1.47355 13.6531L1.68539 14.578L1.92822 14.9965L2.27955 15.4356L3.10105 16.2416L4.04654 17.0114L5.37437 17.9208L6.86237 18.8301L8.4692 19.7549M8.1902 19.9099L10.7787 21.3463L13.579 22.6586L14.8758 23.1649L16.2553 23.6041L17.4643 23.8676L18.725 24.0071L20.0218 24.0226L21.298 23.8831L22.8377 23.5524L24.274 23.0823L26.5835 22.1368L28.7328 21.0518L30.7633 19.9151M30.8356 20.0391L28.7896 21.1758L26.6403 22.2608L24.3308 23.2218L22.8945 23.6764L21.3393 24.0278L20.0425 24.1518H18.7147L17.4385 23.9968L16.2295 23.7333L14.8293 23.3148L13.517 22.7878L13.114 22.6121L11.5227 21.8784L8.1282 20.0443M8.88253 98.6445L10.4894 99.6417L12.1685 100.623L13.951 101.517L15.8575 102.287L17.1182 102.654L18.446 102.897L19.7067 102.969L20.9467 102.897L22.135 102.669L23.2561 102.354L23.4835 102.282L24.3205 101.967L25.9118 101.269L27.4153 100.484L30.5308 98.6497M8.41753 4.95765L10.0967 4.04832L10.5875 3.80549M30.8408 18.1843L33.6411 16.5413L34.9689 15.6681L36.1934 14.7433L37.0666 13.9218L37.7331 13.0125L38.0121 12.315V11.912M30.7375 5.00415L32.4683 5.96515L34.1474 6.96231L35.6871 8.02664L36.9994 9.16331L37.5419 9.80914L37.9088 10.4911L38.0483 11.2093L37.9449 11.943L37.5419 12.7128L36.9323 13.4465L35.6561 14.5676L34.1526 15.601L32.5251 16.5981L30.846 17.5591M1.00339 11.9378L0.987888 12.1651L1.19972 12.8626L1.63889 13.5601L2.21755 14.206L2.91505 14.8363L4.54254 16.0246L6.29404 17.1251L8.1127 18.1739M8.1127 17.5436L6.39737 16.5465L4.76988 15.5338L3.23021 14.4488L1.93338 13.276L1.42705 12.6301L1.07572 11.9481L0.951721 11.23L1.10672 10.4963L1.52522 9.74197L2.19172 9.00831L3.50405 7.92331L3.55571 7.88714M8.1747 18.2256L6.35604 17.1613L4.60454 16.0763V16.0608M33.6359 16.531L33.5843 16.5465L30.7685 18.2256M30.6651 4.95249L28.9705 4.04316L27.2396 3.14933L25.4055 2.32783L23.4473 1.63033L22.1712 1.29967L20.8227 1.07233L19.5465 1L18.2858 1.07233L17.0975 1.28417L15.9453 1.56316L13.8993 2.26066L11.9929 3.09766L10.1742 4.00699L8.4227 4.95249M1.35472 12.2168L1.50972 12.532L2.01605 13.1778L3.27671 14.3506L4.80088 15.415L6.46454 16.4276L8.17986 17.4248M8.4227 4.95249L6.74354 5.87732L5.10054 6.83832L3.59705 7.85098L2.28472 8.95148L1.63889 9.66964L1.22039 10.424L1.08089 11.1421L1.18422 11.8603V11.8758M37.9139 11.3333L37.9501 11.1215L37.8106 10.4033L37.4438 9.73681L36.9168 9.09097L35.6044 7.95431L34.0648 6.90548L32.3856 5.90832L30.6703 4.94732M30.7581 17.4196L32.4528 16.4586L34.0596 15.477L35.5631 14.4281L36.8238 13.307L37.4334 12.5888L37.8364 11.8345L37.8881 11.5193M8.80503 18.5821L8.1747 18.2308M30.7736 18.2308L28.8826 19.2641L26.9245 20.2613L26.2063 20.5764M8.10236 17.5488V18.1791M8.10236 18.1791L10.045 19.2641L12.0755 20.2974L14.2455 21.2223L15.7335 21.7493L17.361 22.1316L18.6733 22.2866L20.0012 22.3021L21.3135 22.1626L22.5535 21.8991L24.1293 21.4289L25.5966 20.8503L26.9968 20.2199L28.955 19.2228L30.846 18.1739M30.846 17.5436V18.1739M30.846 17.5436V17.5281L30.8305 17.5126V17.4971L30.815 17.4816V17.4661L30.7995 17.4506L30.784 17.4351H30.7685M8.1902 17.4351L9.88486 18.3806L11.6364 19.3054L13.4912 20.1424L15.501 20.8761L16.7978 21.2274L18.1773 21.4548L19.4742 21.5271L20.771 21.4548L22.011 21.2636L23.1631 20.9639L25.2608 20.2303L27.2035 19.3571L29.0221 18.4116L30.7736 17.4299M8.12303 17.5539V17.5023L8.13853 17.4868L8.15403 17.4713V17.4558L8.16953 17.4403H8.18503M30.8511 17.5643L29.0841 18.5459L27.2655 19.4914L25.3228 20.3646L23.2045 21.0983L22.0317 21.3979L20.771 21.6098L19.4587 21.6821L18.1463 21.6098L16.7462 21.3824L15.4338 21.0311L13.424 20.2974L11.5537 19.4398L9.80219 18.5149L8.10753 17.5694M30.2156 19.6309L28.2575 20.6953L26.227 21.7286L24.0415 22.6534L22.6413 23.1236L21.1378 23.4543L19.531 23.5938L17.9242 23.4904L16.1417 23.0719L14.4987 22.4933L12.959 21.8268L11.5227 21.1293L10.1225 20.3749L8.75853 19.6206M8.75853 19.6206L6.86754 18.5201L5.08504 17.3834L3.45755 16.159L2.65155 15.3891L2.07288 14.5521L1.89722 13.834M37.1234 13.7978L36.9839 14.4798L36.2864 15.477L35.2738 16.3863L34.1216 17.2439L32.861 18.0499L31.5641 18.8353L30.2156 19.6206M37.4903 13.3586L37.5419 13.5705L37.3663 14.4953L36.6688 15.508L35.6716 16.4535L34.4833 17.3266L33.2071 18.1636L31.8586 18.9696L30.4946 19.7549M8.47436 19.7549L6.55237 18.6338L4.73371 17.4816L3.09071 16.2416L2.26922 15.4356L1.69055 14.578L1.47872 13.6686L1.53039 13.4258M30.4946 19.7549L28.4848 20.8554L26.4233 21.9043L24.1861 22.8498L22.7498 23.3199L21.1947 23.6713L19.5517 23.8108L17.888 23.6868L16.0538 23.2838L14.3747 22.7051L12.7988 22.0231L11.3109 21.2894L9.87453 20.5351L8.47436 19.7498M3.12171 14.981V15.2445M35.9351 14.8776V15.1566M27.2086 20.1218V20.1579M12.3752 20.5248V20.4369M26.6145 20.5248V20.4008M12.99 20.9278V20.7159M26.0203 20.9278V20.6643M35.9351 14.8776L36.0384 15.0326M13.6152 21.3618V20.9949M25.3693 21.3618V20.9433M14.2972 21.8526V21.2223M24.6873 21.8681V21.2223M15.0515 22.3589V21.6253M23.9175 22.3434V21.6253M15.8885 22.6586V22.0283M23.0753 22.6379V22.0283M16.8495 22.9531V22.4468M22.1143 22.9376V22.4468M17.9345 23.1804V22.8136M21.0293 23.1649V22.8136M19.159 23.3044V23.0048M19.8048 23.2838V23.0048M26.0151 21.4134L25.4365 20.9071M25.8033 20.7676L26.413 21.2378M26.7643 21.0466L26.1546 20.6074M26.4853 20.4524L27.1311 20.8554M27.4825 20.6798L26.8366 20.2974M27.1518 20.1424L27.8338 20.5093M28.1851 20.3181L27.4876 19.9874M27.8183 19.8118L28.5365 20.1269M28.9033 19.9358L28.1696 19.6361M28.521 19.4604L29.2753 19.7239M29.6576 19.5121L28.8878 19.2693M29.2546 19.0574L30.04 19.2848M30.443 19.0574L29.637 18.8456M30.04 18.6338L30.8615 18.8094M31.3006 18.5666L30.4791 18.3909M30.9183 18.1481L31.7553 18.2876M30.8305 18.1326L30.9183 18.1481M32.2306 18.0086L31.373 17.8846M31.8431 17.6056L32.7163 17.7089M33.2226 17.3783L32.365 17.2904M32.9075 16.9753L33.7444 17.0269M34.2714 16.6446L33.5016 16.6085M34.0958 16.2261L34.7933 16.2416M35.3203 15.8025H34.7416M35.3719 15.3633L35.7904 15.3478M3.22505 15.3478L3.62805 15.3633M4.23771 15.8025H3.67971M4.18604 16.2416L4.86804 16.2261M5.47771 16.6291L4.70788 16.6446M5.25037 17.0269L6.0357 16.9753M6.5782 17.3059L5.75671 17.3783M6.2837 17.7089L7.1052 17.6056M7.59603 17.8846L6.77454 18.0086M8.0507 18.1636L8.13853 18.1481M7.2292 18.3031L8.0507 18.1636M8.48986 18.4064L7.68387 18.5614M8.12303 18.8249L8.92903 18.6338M9.31136 18.8611L8.54153 19.0729M8.94453 19.3003L9.69886 19.0729M10.0657 19.2848L9.33203 19.5276M9.71436 19.7394L10.4325 19.4759M10.7839 19.6516L10.0864 19.9306M10.4377 20.1424L11.1352 19.8273M11.4659 20.0029L10.7839 20.3336M11.1352 20.5093L11.8017 20.1579M12.1324 20.3129L11.4865 20.6953M11.8379 20.8709L12.4682 20.4679M12.8195 20.6229L12.1892 21.0621M12.556 21.2378L13.1657 20.7831M13.517 20.9381L12.9383 21.4289M13.3413 21.6201L13.8838 21.0931M14.3023 21.2171L13.7598 21.7958M14.1783 22.0076L14.6692 21.4289M15.0515 21.6201L14.633 22.1781M15.0515 21.6201L15.2788 21.7234L15.4545 21.8268M15.1032 22.3693L15.4545 21.8268M15.8937 22.0179L15.594 22.5604M15.8937 22.0179L16.1572 22.1419L16.369 22.2298M16.1262 22.7206L16.369 22.2298M16.8598 22.4416L16.6842 22.8963M16.8598 22.4416L17.1595 22.5449L17.3868 22.6328M17.2628 23.0358L17.3868 22.6328M17.9448 22.8084L17.8725 23.1598M17.9448 22.8084L18.2755 22.8808L18.539 22.9324M18.5028 23.2476L18.539 22.9324M19.1693 23.0048L19.1538 23.3044M19.1693 23.0048L19.345 23.0203H19.4845M19.8152 23.0048L19.624 23.0203H19.4845M19.8152 23.2838V23.0048M20.4248 22.9324L20.461 23.2476M21.0397 22.8084L20.709 22.8808L20.43 22.9324M21.112 23.1443L21.0397 22.8136M21.5977 22.6379L21.701 23.0409M22.1195 22.4468L21.8198 22.5501L21.5925 22.6379M22.29 22.8808L22.1143 22.4416M22.6052 22.2298L22.8325 22.7206M23.0753 22.0231L22.8118 22.1471L22.6 22.2349M23.3543 22.5501L23.0753 22.0231M23.5145 21.8319L23.8658 22.3589M23.9175 21.6253L23.6901 21.7286L23.5145 21.8319M24.336 22.1833L23.9175 21.6253M24.3205 21.4341L24.7906 21.9921M25.2091 21.8009L24.6821 21.2223M25.0335 21.0466L25.6276 21.6046M22.8996 21.8319L23.127 21.7286L23.2303 21.6769M16.0952 21.8319L16.5498 22.0438L17.4437 22.4106L18.4047 22.6741L19.469 22.7981L20.5333 22.6741L21.8973 22.2556L22.6517 21.9404M29.9986 19.4914L29.017 20.0339L28.1076 20.5248L27.1621 21.0156L26.1805 21.5064L25.2556 21.9249L24.5375 22.2401L23.8555 22.5036L23.189 22.7464L22.5587 22.9376L20.9673 23.3044L20.213 23.3923L19.4793 23.4284L18.6733 23.3923L17.8673 23.2889L16.9735 23.1133L16.1158 22.8704L15.346 22.6276L14.54 22.3124L13.6668 21.9456L12.5147 21.4031L11.2385 20.7573L10.1535 20.1631L8.94453 19.4966M30.195 19.6206L32.1015 18.4994L33.9201 17.3628L35.5476 16.1383L36.3536 15.353L36.9323 14.516L37.1441 13.679M1.91272 13.8443L2.05222 14.5108L2.74972 15.4925L3.74688 16.4018L4.88354 17.2594L6.12354 18.0654L7.42037 18.8508L8.7482 19.6206M8.7482 19.6206L10.6909 20.6849L12.7369 21.7183L14.9223 22.6638L16.3225 23.1339L17.8467 23.4646L19.438 23.5886L21.0448 23.4646L22.8273 23.0616L24.4703 22.4829L25.9945 21.8164L27.4463 21.0983L28.8465 20.3646L30.2105 19.6103M37.3973 92.0519L38.0276 13.7513M0.987888 13.7926L2.07288 92.0932M38.0483 11.9016V11.2713M0.951721 11.3075L0.967221 11.9378M37.5368 13.8598L37.5523 13.6686M9.17186 19.4398L7.40487 18.4064L5.8497 17.4454L4.53738 16.5206L3.73138 15.8541L3.10105 15.2238L2.73422 14.6658M36.2968 14.6141L36.2244 14.7691L35.8059 15.3116L35.1394 15.9781L34.1784 16.7118L32.9695 17.5333L31.5021 18.4426L29.7713 19.4398M29.7713 19.4398L27.9526 20.4369L26.289 21.2946L24.7493 22.0128L23.6643 22.4519L22.6 22.8033L21.4995 23.1029L20.3783 23.2786L19.2572 23.3303L18.1567 23.2269L16.9838 22.9996L15.6715 22.5966L14.2197 22.0386L12.6439 21.3204L10.9647 20.4473L9.16153 19.4501" stroke="#06B597" stroke-width="0.3" stroke-linecap="round" stroke-linejoin="round"/>
</svg>
